<svg id="Layer_1" data-name="Layer 1" xmlns="http://www.w3.org/2000/svg" viewBox="0 0 164.59 66.87"><defs><style>.cls-1,.cls-2,.cls-3,.cls-5{fill:#5d535a;}.cls-2,.cls-3,.cls-4,.cls-5{isolation:isolate;}.cls-2,.cls-3,.cls-5{font-size:23.87px;font-family:SofiaPro-Black, Sofia Pro;font-weight:800;}.cls-3{letter-spacing:-0.01em;}.cls-5{letter-spacing:-0.01em;}</style></defs><title>logo</title><path class="cls-1" d="M15.3,35.58a8.82,8.82,0,1,1,8.81-8.83h0A8.82,8.82,0,0,1,15.3,35.58Z" transform="translate(-0.01)"/><path class="cls-1" d="M44.05,35.58a8.82,8.82,0,1,1,8.82-8.82h0A8.82,8.82,0,0,1,44.05,35.58Z" transform="translate(-0.01)"/><path class="cls-1" d="M15.1,11.48a14.83,14.83,0,0,1,2,.14L0,0V13.52H0V24A15.34,15.34,0,0,1,15.1,11.48Z" transform="translate(-0.01)"/><path class="cls-1" d="M44,11.48A15.31,15.31,0,0,1,59.13,24.33V0L42.05,11.61A15.67,15.67,0,0,1,44,11.48Z" transform="translate(-0.01)"/><path class="cls-1" d="M29.54,21.61a15.31,15.31,0,0,1,6.81-8.09H22.74A15.25,15.25,0,0,1,29.54,21.61Z" transform="translate(-0.01)"/><path class="cls-1" d="M59.13,29.2a15.36,15.36,0,0,1-24,10c-1,4-5.53,7.14-5.53,7.14s-4.63-3.12-5.55-7.2a15.35,15.35,0,0,1-24-9.66v8.37h0a29.56,29.56,0,0,0,59.11,0h0v-.32h0Z" transform="translate(-0.01)"/><text class="cls-2" transform="translate(70.18 31.79)">FU</text><text class="cls-3" transform="translate(99.46 31.79)">K</text><text class="cls-2" transform="translate(114.41 31.79)">URO</text><g class="cls-4"><text class="cls-2" transform="translate(73.32 53.44)">G</text><text class="cls-2" transform="translate(91.25 53.44)">AM</text><text class="cls-5" transform="translate(128.96 53.44)">E</text><text class="cls-2" transform="translate(142.66 53.44)">S</text></g></svg>